PathFileType	4	(X/Y/Z)	./resultDataOpenSim/trcMotMarkerGrf/sub10/qtm-03-04.trc
DataRate	CameraRate	NumFrames	NumMarkers	Units	OrigDataRate	OrigDataStartFrame	OrigNumFrames
250.000000	250.000000	8	24	m	250.000000	456	520
Frame#	Time	L.Toe.Tip			R.Toe.Tip			L.Ankle.Lat			R.Ankle.Lat			L.Ankle.Med			R.Ankle.Med			L.Heel			R.Heel			L.Knee.Lat			R.Knee.Lat			L.Knee.Med			R.Knee.Med			L.Thigh.Upper			R.Thigh.Upper			L.ASIS			R.ASIS			V.Sacral			L.Acromium			R.Acromium			C7			L.Elbow			R.Elbow			L.Wrist.Lat			R.Wrist.Lat
		X1	Y1	Z1	X2	Y2	Z2	X3	Y3	Z3	X4	Y4	Z4	X5	Y5	Z5	X6	Y6	Z6	X7	Y7	Z7	X8	Y8	Z8	X9	Y9	Z9	X10	Y10	Z10	X11	Y11	Z11	X12	Y12	Z12	X13	Y13	Z13	X14	Y14	Z14	X15	Y15	Z15	X16	Y16	Z16	X17	Y17	Z17	X18	Y18	Z18	X19	Y19	Z19	X20	Y20	Z20	X21	Y21	Z21	X22	Y22	Z22	X23	Y23	Z23	X24	Y24	Z24

456	1.82	1.5477188	0.10893458	-0.15456053	0.82419598	0.038090021	0.023147129	1.4172754	0.080902664	-0.18694935	0.69175685	0.08578591	0.049710837	1.4167247	0.10308373	-0.10653304	0.72141289	0.1022504	-0.034166413	1.3702436	0.027411013	-0.1427507	0.63691691	0.074327851	0.0020913086	1.2839408	0.45294607	-0.19705461	0.9048958	0.42637429	0.084581516	1.2982122	0.4237671	-0.078290797	0.93955235	0.42209592	-0.039577866	1.1434488	0.80730346	-0.23190879	0.98604427	0.82853814	0.13011485	1.1664162	0.91553446	-0.14751971	1.0838255	0.91446776	0.092784197	0.91574581	0.91378429	-0.088460221	1.053432	1.3816094	-0.19070287	1.0322455	1.3649293	0.13321379	0.9575806	1.4027431	-0.037381581	0.87711578	1.1004304	-0.27204224	1.0917591	1.0136051	0.20791393	0.90365671	0.86959707	-0.34352459	1.338074	0.97057666	0.2145676
457	1.824	1.5504476	0.10608514	-0.15547764	0.82450051	0.03815219	0.023194615	1.4197402	0.07913753	-0.18681586	0.69299927	0.087977352	0.049849402	1.4199139	0.10152514	-0.10617941	0.72286255	0.10394441	-0.034028844	1.3722391	0.026212726	-0.14217692	0.63803188	0.077296151	0.0022268877	1.290084	0.4525486	-0.19735515	0.90975659	0.42600638	0.08420461	1.3051904	0.4242185	-0.078543618	0.94503897	0.42124496	-0.039825966	1.1494332	0.80742418	-0.23259542	0.99123347	0.82790195	0.12917696	1.172507	0.91524933	-0.1477102	1.0892904	0.91378505	0.092429609	0.92909769	0.91124633	-0.094101148	1.059407	1.381157	-0.19139405	1.0377743	1.3643564	0.13247366	0.96339008	1.402254	-0.038240132	0.88306622	1.0999505	-0.2723994	1.0971949	1.0128372	0.20613558	0.90927801	0.86907803	-0.34368538	1.3435443	0.97009386	0.21289478
458	1.828	1.5527339	0.10305179	-0.15616764	0.82483143	0.038216734	0.023228646	1.4218701	0.077313252	-0.18657207	0.69433671	0.090269757	0.049985996	1.4227621	0.099913552	-0.10578801	0.72444456	0.10573647	-0.03389884	1.3738174	0.025142528	-0.14156357	0.63927123	0.080395279	0.0023192327	1.2961789	0.45210727	-0.19768417	0.91474683	0.42565735	0.083799508	1.3121709	0.4247001	-0.078827568	0.95065219	0.42040511	-0.04006199	1.1553965	0.807549	-0.2333213	0.99652559	0.82727066	0.12822712	1.1785956	0.91507341	-0.14796493	1.0948683	0.91313841	0.09202223	0.94355774	0.90849243	-0.098736633	1.0654038	1.3807651	-0.1920937	1.0433363	1.3638429	0.13170122	0.9692322	1.4017987	-0.039107633	0.88908511	1.0994822	-0.27277851	1.1024865	1.0120971	0.20430495	0.91500255	0.86856956	-0.34382932	1.348894	0.96957632	0.2112132
459	1.832	1.5547284	0.099861097	-0.15683806	0.82519463	0.038281123	0.023241321	1.4236895	0.075489649	-0.18622356	0.69577007	0.092657661	0.050094997	1.4252416	0.098230508	-0.10535967	0.72618016	0.10762553	-0.033783312	1.3749821	0.024293406	-0.14093284	0.64063905	0.083627755	0.0023592226	1.302213	0.45160861	-0.19802711	0.91985477	0.42533119	0.083379353	1.3191291	0.42518302	-0.079146341	0.95638066	0.41957667	-0.040282489	1.1613425	0.80767555	-0.23407018	1.0019257	0.82663918	0.12726779	1.1847012	0.91499347	-0.1482912	1.1005716	0.91252157	0.091554251	0.95636416	0.90617153	-0.099238097	1.0714213	1.3804291	-0.1928054	1.0489292	1.3633976	0.13089095	0.9751075	1.4013799	-0.0399817	0.8951776	1.0990329	-0.27318084	1.1076777	1.0114241	0.20242414	0.92078774	0.86807616	-0.34394195	1.3541243	0.96901876	0.20953567
460	1.836	1.5565698	0.096517032	-0.15761886	0.82559256	0.03834148	0.023235737	1.4252502	0.073704626	-0.18581107	0.69730227	0.095138158	0.050151742	1.4274069	0.09647642	-0.10491121	0.7280794	0.10959796	-0.033690903	1.3757837	0.023679463	-0.14032584	0.64213537	0.086996061	0.0023399704	1.3081693	0.45104422	-0.19836373	0.92508399	0.42502632	0.082966259	1.3260101	0.42562773	-0.07950344	0.96221761	0.41876474	-0.040483888	1.1672842	0.80780675	-0.23482827	1.0074357	0.82600436	0.12630384	1.1908567	0.91496804	-0.14867997	1.1064084	0.91192901	0.091024979	0.96656156	0.90456501	-0.096041266	1.077455	1.3801389	-0.19353998	1.0545513	1.3630316	0.13004032	0.98101391	1.4010006	-0.040877107	0.90134394	1.0986057	-0.27360324	1.1127968	1.0108385	0.20050094	0.92659825	0.86760341	-0.34401065	1.3592401	0.96841753	0.20787165
461	1.84	1.5583627	0.092969925	-0.15841387	0.82601957	0.038391518	0.023220318	1.426631	0.071999297	-0.18540087	0.69893864	0.097709953	0.050146204	1.4293648	0.094690089	-0.10447813	0.73013189	0.11162981	-0.033625443	1.3763419	0.02324868	-0.13977694	0.6437524	0.0905043	0.0022564331	1.3140263	0.45041476	-0.19867873	0.93045582	0.42473506	0.082566384	1.332757	0.42598257	-0.079898484	0.96816344	0.41797166	-0.04066629	1.1732422	0.80794691	-0.23559033	1.0130566	0.82536352	0.12533993	1.1970758	0.91496543	-0.14911565	1.1123838	0.91135606	0.090439077	0.9743212	0.90379689	-0.093169834	1.0835004	1.3798851	-0.19431227	1.0602075	1.3627495	0.12915002	0.98694934	1.4006547	-0.041805928	0.90757765	1.0981946	-0.27404221	1.1178374	1.0103199	0.1985426	0.93246799	0.86714771	-0.3440491	1.3642449	0.96777328	0.20622087
462	1.844	1.5601964	0.089130663	-0.15897775	0.82646526	0.038423574	0.023199625	1.4279515	0.070452083	-0.18506449	0.70068731	0.10037442	0.050083179	1.431259	0.092972541	-0.10410426	0.7323239	0.1137035	-0.033583913	1.3768168	0.023010316	-0.13931312	0.64548242	0.09415853	0.0021055046	1.3197614	0.44973188	-0.19896918	0.93598421	0.424453	0.082176442	1.3393395	0.42619559	-0.080320426	0.97422203	0.41719152	-0.040835169	1.1792311	0.80809915	-0.23635938	1.0187937	0.82471321	0.1243761	1.2033441	0.91498501	-0.14958769	1.1185039	0.91079683	0.089799816	0.98024194	0.90380998	-0.093667672	1.0895593	1.3796627	-0.19513051	1.0659017	1.3625479	0.12822038	0.99290976	1.4003251	-0.042766094	0.91387151	1.0977848	-0.27450224	1.1227839	1.009832	0.19655199	0.93849945	0.86669337	-0.34410218	1.3691422	0.96708478	0.20457671
463	1.848	1.5621887	0.084928348	-0.15915925	0.82692608	0.038435823	0.023170458	1.4293821	0.069172326	-0.18485021	0.70255644	0.10313375	0.049974665	1.4332756	0.091474462	-0.10382071	0.73465861	0.11581636	-0.033562799	1.3773689	0.023097511	-0.13896987	0.64734552	0.097949613	0.0018828777	1.3253541	0.44901864	-0.1992444	0.94166421	0.42418452	0.081795579	1.3457537	0.42623944	-0.080746277	0.980397	0.41641431	-0.040999461	1.1852568	0.80826748	-0.23714297	1.0246575	0.82405004	0.12340972	1.2096352	0.91504291	-0.15009126	1.1247733	0.91024362	0.089109178	0.98530844	0.90422868	-0.096697613	1.0956368	1.3794711	-0.19598963	1.0716274	1.3624158	0.12725039	0.99888781	1.3999984	-0.043753339	0.92022115	1.0973625	-0.27499498	1.1276311	1.0093526	0.19453538	0.94476596	0.86622681	-0.34420795	1.3739413	0.96634913	0.20293696
